HIERARCHY
ROOT mixamorigHips
{
	OFFSET 0.000000 0.000000 -95.415794
	CHANNELS 6 Xposition Yposition Zposition Xrotation Yrotation Zrotation
	JOINT mixamorigSpine
	{
		OFFSET 0.000000 -0.358200 -10.058800
		CHANNELS 3 Xrotation Yrotation Zrotation
		JOINT mixamorigSpine1
		{
			OFFSET 0.000000 -0.417847 -11.735359
			CHANNELS 3 Xrotation Yrotation Zrotation
			JOINT mixamorigSpine2
			{
				OFFSET 0.000000 -0.477538 -13.411812
				CHANNELS 3 Xrotation Yrotation Zrotation
				JOINT mixamorigNeck
				{
					OFFSET 0.000000 -0.537228 -15.088242
					CHANNELS 3 Xrotation Yrotation Zrotation
					JOINT mixamorigHead
					{
						OFFSET 0.000000 2.687800 -8.085602
						CHANNELS 3 Xrotation Yrotation Zrotation
						JOINT mixamorigHeadTop_End
						{
							OFFSET 0.000000 7.146700 -21.499207
							CHANNELS 3 Xrotation Yrotation Zrotation
							End Site
							{
								OFFSET 0.000000 0.000000 -22.655930
							}
						}
					}
				}
				JOINT mixamorigLeftShoulder
				{
					OFFSET 5.949100 -0.535855 -13.237015
					CHANNELS 3 Xrotation Yrotation Zrotation
					JOINT mixamorigLeftArm
					{
						OFFSET 11.918104 0.002851 3.676208
						CHANNELS 3 Xrotation Yrotation Zrotation
						JOINT mixamorigLeftForeArm
						{
							OFFSET 23.814898 -0.000001 0.000000
							CHANNELS 3 Xrotation Yrotation Zrotation
							JOINT mixamorigLeftHand
							{
								OFFSET 24.556309 -0.000001 0.000000
								CHANNELS 3 Xrotation Yrotation Zrotation
								JOINT mixamorigLeftHandThumb1
								{
									OFFSET 2.802582 2.556223 1.204224
									CHANNELS 3 Xrotation Yrotation Zrotation
									JOINT mixamorigLeftHandThumb2
									{
										OFFSET 2.466209 1.423865 1.423859
										CHANNELS 3 Xrotation Yrotation Zrotation
										JOINT mixamorigLeftHandThumb3
										{
											OFFSET 2.369835 1.368225 1.368225
											CHANNELS 3 Xrotation Yrotation Zrotation
											JOINT mixamorigLeftHandThumb4
											{
												OFFSET 1.846512 1.066086 1.066086
												CHANNELS 3 Xrotation Yrotation Zrotation
												End Site
												{
													OFFSET 1.556206 1.486212 1.025696
												}
											}
										}
									}
								}
								JOINT mixamorigLeftHandIndex1
								{
									OFFSET 8.620476 2.435161 0.225967
									CHANNELS 3 Xrotation Yrotation Zrotation
									JOINT mixamorigLeftHandIndex2
									{
										OFFSET 3.045731 -0.000000 0.000000
										CHANNELS 3 Xrotation Yrotation Zrotation
										JOINT mixamorigLeftHandIndex3
										{
											OFFSET 2.806702 -0.000000 0.000000
											CHANNELS 3 Xrotation Yrotation Zrotation
											JOINT mixamorigLeftHandIndex4
											{
												OFFSET 2.440117 -0.000000 0.000000
												CHANNELS 3 Xrotation Yrotation Zrotation
												End Site
												{
													OFFSET 2.440094 -0.008200 0.000061
												}
											}
										}
									}
								}
								JOINT mixamorigLeftHandMiddle1
								{
									OFFSET 8.484863 -0.000000 0.000000
									CHANNELS 3 Xrotation Yrotation Zrotation
									JOINT mixamorigLeftHandMiddle2
									{
										OFFSET 3.193611 -0.000000 0.000000
										CHANNELS 3 Xrotation Yrotation Zrotation
										JOINT mixamorigLeftHandMiddle3
										{
											OFFSET 3.085205 -0.000000 0.000000
											CHANNELS 3 Xrotation Yrotation Zrotation
											JOINT mixamorigLeftHandMiddle4
											{
												OFFSET 2.692902 -0.000000 0.000000
												CHANNELS 3 Xrotation Yrotation Zrotation
												End Site
												{
													OFFSET 2.692902 -0.003300 0.000031
												}
											}
										}
									}
								}
								JOINT mixamorigLeftHandRing1
								{
									OFFSET 8.270775 -2.023483 -0.052689
									CHANNELS 3 Xrotation Yrotation Zrotation
									JOINT mixamorigLeftHandRing2
									{
										OFFSET 2.740799 -0.000000 0.000000
										CHANNELS 3 Xrotation Yrotation Zrotation
										JOINT mixamorigLeftHandRing3
										{
											OFFSET 2.757607 -0.000000 0.000000
											CHANNELS 3 Xrotation Yrotation Zrotation
											JOINT mixamorigLeftHandRing4
											{
												OFFSET 2.285004 -0.000000 0.000000
												CHANNELS 3 Xrotation Yrotation Zrotation
												End Site
												{
													OFFSET 2.285004 0.003000 -0.000031
												}
											}
										}
									}
								}
								JOINT mixamorigLeftHandPinky1
								{
									OFFSET 7.700752 -3.945376 0.253616
									CHANNELS 3 Xrotation Yrotation Zrotation
									JOINT mixamorigLeftHandPinky2
									{
										OFFSET 2.527405 0.000000 0.000000
										CHANNELS 3 Xrotation Yrotation Zrotation
										JOINT mixamorigLeftHandPinky3
										{
											OFFSET 2.003403 0.000000 0.000000
											CHANNELS 3 Xrotation Yrotation Zrotation
											JOINT mixamorigLeftHandPinky4
											{
												OFFSET 1.854500 0.000000 0.000000
												CHANNELS 3 Xrotation Yrotation Zrotation
												End Site
												{
													OFFSET 1.854507 -0.001300 0.000015
												}
											}
										}
									}
								}
							}
						}
					}
				}
				JOINT mixamorigRightShoulder
				{
					OFFSET -5.949100 -0.538657 -13.237015
					CHANNELS 3 Xrotation Yrotation Zrotation
					JOINT mixamorigRightArm
					{
						OFFSET -11.918104 -0.002847 3.676208
						CHANNELS 3 Xrotation Yrotation Zrotation
						JOINT mixamorigRightForeArm
						{
							OFFSET -23.819902 0.000001 0.000000
							CHANNELS 3 Xrotation Yrotation Zrotation
							JOINT mixamorigRightHand
							{
								OFFSET -24.559902 0.000001 0.000000
								CHANNELS 3 Xrotation Yrotation Zrotation
								JOINT mixamorigRightHandThumb1
								{
									OFFSET -2.702209 2.527615 1.308395
									CHANNELS 3 Xrotation Yrotation Zrotation
									JOINT mixamorigRightHandThumb2
									{
										OFFSET -2.432022 1.404127 1.404129
										CHANNELS 3 Xrotation Yrotation Zrotation
										JOINT mixamorigRightHandThumb3
										{
											OFFSET -2.375206 1.371325 1.371323
											CHANNELS 3 Xrotation Yrotation Zrotation
											JOINT mixamorigRightHandThumb4
											{
												OFFSET -1.987808 1.147661 1.147659
												CHANNELS 3 Xrotation Yrotation Zrotation
												End Site
												{
													OFFSET -1.835846 1.380323 1.144562
												}
											}
										}
									}
								}
								JOINT mixamorigRightHandIndex1
								{
									OFFSET -8.671478 2.442636 0.301926
									CHANNELS 3 Xrotation Yrotation Zrotation
									JOINT mixamorigRightHandIndex2
									{
										OFFSET -3.068298 0.000000 0.000000
										CHANNELS 3 Xrotation Yrotation Zrotation
										JOINT mixamorigRightHandIndex3
										{
											OFFSET -2.779701 0.000000 0.000000
											CHANNELS 3 Xrotation Yrotation Zrotation
											JOINT mixamorigRightHandIndex4
											{
												OFFSET -2.490097 0.000000 0.000000
												CHANNELS 3 Xrotation Yrotation Zrotation
												End Site
												{
													OFFSET -2.490097 -0.000700 0.000000
												}
											}
										}
									}
								}
								JOINT mixamorigRightHandMiddle1
								{
									OFFSET -8.656311 0.000000 0.000000
									CHANNELS 3 Xrotation Yrotation Zrotation
									JOINT mixamorigRightHandMiddle2
									{
										OFFSET -3.230400 0.000000 0.000000
										CHANNELS 3 Xrotation Yrotation Zrotation
										JOINT mixamorigRightHandMiddle3
										{
											OFFSET -3.025497 0.000000 0.000000
											CHANNELS 3 Xrotation Yrotation Zrotation
											JOINT mixamorigRightHandMiddle4
											{
												OFFSET -2.688805 0.000000 0.000000
												CHANNELS 3 Xrotation Yrotation Zrotation
												End Site
												{
													OFFSET -2.688797 -0.000700 0.000000
												}
											}
										}
									}
								}
								JOINT mixamorigRightHandRing1
								{
									OFFSET -8.628174 -2.089274 -0.073822
									CHANNELS 3 Xrotation Yrotation Zrotation
									JOINT mixamorigRightHandRing2
									{
										OFFSET -2.674103 0.000000 0.000000
										CHANNELS 3 Xrotation Yrotation Zrotation
										JOINT mixamorigRightHandRing3
										{
											OFFSET -2.630905 0.000000 0.000000
											CHANNELS 3 Xrotation Yrotation Zrotation
											JOINT mixamorigRightHandRing4
											{
												OFFSET -2.160599 0.000000 0.000000
												CHANNELS 3 Xrotation Yrotation Zrotation
												End Site
												{
													OFFSET -2.160599 -0.000900 0.000000
												}
											}
										}
									}
								}
								JOINT mixamorigRightHandPinky1
								{
									OFFSET -7.514580 -3.927982 0.339432
									CHANNELS 3 Xrotation Yrotation Zrotation
									JOINT mixamorigRightHandPinky2
									{
										OFFSET -2.510002 0.000000 0.000000
										CHANNELS 3 Xrotation Yrotation Zrotation
										JOINT mixamorigRightHandPinky3
										{
											OFFSET -2.099197 0.000000 0.000000
											CHANNELS 3 Xrotation Yrotation Zrotation
											JOINT mixamorigRightHandPinky4
											{
												OFFSET -1.845604 0.000000 0.000000
												CHANNELS 3 Xrotation Yrotation Zrotation
												End Site
												{
													OFFSET -1.845596 0.001600 0.000015
												}
											}
										}
									}
								}
							}
						}
					}
				}
			}
		}
	}
	JOINT mixamorigLeftUpLeg
	{
		OFFSET 9.392100 -0.093200 5.572197
		CHANNELS 3 Xrotation Yrotation Zrotation
		JOINT mixamorigLeftLeg
		{
			OFFSET 0.292645 -2.734330 42.228855
			CHANNELS 3 Xrotation Yrotation Zrotation
			JOINT mixamorigLeftFoot
			{
				OFFSET -0.292647 -1.515097 39.069244
				CHANNELS 3 Xrotation Yrotation Zrotation
				JOINT mixamorigLeftToeBase
				{
					OFFSET 1.771321 12.504712 7.534380
					CHANNELS 3 Xrotation Yrotation Zrotation
					JOINT mixamorigLeftToe_End
					{
						OFFSET 0.606595 5.917521 -0.250482
						CHANNELS 3 Xrotation Yrotation Zrotation
						End Site
						{
							OFFSET 0.606595 5.917521 -0.250482
						}
					}
				}
			}
		}
	}
	JOINT mixamorigRightUpLeg
	{
		OFFSET -9.392100 -0.015200 5.572197
		CHANNELS 3 Xrotation Yrotation Zrotation
		JOINT mixamorigRightLeg
		{
			OFFSET -0.292665 -2.850109 42.228924
			CHANNELS 3 Xrotation Yrotation Zrotation
			JOINT mixamorigRightFoot
			{
				OFFSET 0.292671 -1.341140 39.069195
				CHANNELS 3 Xrotation Yrotation Zrotation
				JOINT mixamorigRightToeBase
				{
					OFFSET -1.771318 12.379671 7.534140
					CHANNELS 3 Xrotation Yrotation Zrotation
					JOINT mixamorigRightToe_End
					{
						OFFSET -0.606596 6.000615 -0.250612
						CHANNELS 3 Xrotation Yrotation Zrotation
						End Site
						{
							OFFSET -0.606596 6.000614 -0.250612
						}
					}
				}
			}
		}
	}
}
MOTION
Frames: 5
Frame Time: 0.033333
0.621725 -0.032661 -93.494202 -1.024647 -4.770485 -1.597836 1.233331 2.429768 1.226517 0.756254 5.944621 -0.265623 0.790885 5.851452 -0.785587 1.056822 -2.163957 0.304910 1.507092 -8.140122 -0.549718 -0.000000 0.000000 -0.000000 4.785494 -4.899232 13.815506 -24.923084 -82.770671 -29.150004 0.000003 0.000008 14.506748 -28.205492 -9.396419 -3.749228 18.402311 10.915708 0.469948 -0.388550 -2.597380 -32.795536 2.059091 -0.353904 -9.311352 0.000001 -0.000000 -0.000000 -0.303264 -7.818057 -4.715278 -0.671860 -20.540110 -3.015440 -0.111880 -10.168774 -0.829879 -0.000001 -0.000002 -0.000001 -1.562891 -15.641895 -9.109329 -1.708658 -33.308838 -4.777335 -0.153040 -12.260209 -1.523643 -0.000000 0.000000 0.000001 -3.307177 -26.309366 -13.044418 -1.569615 -40.104139 -5.084361 -0.099231 -19.333831 -1.944784 -0.000001 0.000000 -0.000001 -6.153515 -35.283415 -19.771173 -2.781064 -45.497468 -5.822506 -0.581080 -20.498137 -3.046436 0.000000 0.000000 -0.000001 4.826391 5.462414 -3.339566 0.351309 67.336444 -1.702319 0.000005 -0.000003 -17.736782 -12.817384 10.009699 9.265497 18.402290 -10.915722 -0.469954 -0.388429 2.597305 32.795532 1.845244 1.102674 8.432046 -0.000000 0.000003 -0.000006 -0.303274 7.818062 4.715273 -0.671849 20.540170 3.015446 -0.246438 13.843827 0.222826 0.000000 -0.000000 -0.000000 -1.562870 15.641907 9.109326 -1.708660 33.308842 4.777339 -0.264452 15.890970 1.755958 0.000000 0.000002 0.000000 -3.307134 26.309358 13.044411 -1.569612 40.104125 5.084348 -0.146610 17.815338 -0.037055 -0.000001 0.000000 0.000000 -6.153504 35.283436 19.771159 -2.781038 45.497471 5.822484 -0.828384 22.122518 0.267224 0.000000 -0.000001 -0.000001 -18.656902 15.308503 -10.793518 26.005826 2.433664 -9.542439 -3.437297 -8.965127 -3.517186 -0.441963 -0.000000 0.000012 -0.000000 0.000000 0.000002 -2.294392 10.114399 4.935156 10.297421 3.244885 5.175873 -8.387302 -8.051849 -0.961895 -0.548659 -0.000001 0.000005 0.000000 0.000000 -0.000001 
0.916708 -0.216798 -93.540161 -1.297905 -4.658682 -1.458799 1.383891 2.374434 1.360957 0.818959 5.931220 -0.236549 0.853418 5.838679 -0.755644 0.902706 -2.138156 0.341094 1.075258 -8.224038 -0.408316 -0.000000 0.000000 -0.000000 4.913574 -5.864360 14.619634 3.829526 -80.957802 -1.225423 -0.000004 -0.000015 17.010829 -26.443646 -9.809838 -0.419203 18.402295 10.915709 0.469946 -0.388536 -2.597392 -32.795526 2.059092 -0.353917 -9.311342 0.000001 -0.000000 0.000002 -0.367329 -8.579577 -4.801886 -0.714301 -21.282052 -3.105676 -0.124623 -10.834508 -0.899701 0.000001 -0.000005 0.000000 -1.665162 -16.397778 -9.240514 -1.790644 -34.096287 -4.901872 -0.169627 -12.925881 -1.593790 -0.000000 -0.000003 -0.000000 -3.441361 -27.066310 -13.141245 -1.654995 -40.912205 -5.220530 -0.119001 -20.078574 -2.025072 0.000001 0.000000 -0.000000 -6.471428 -35.997091 -20.032631 -2.915093 -46.328435 -6.002758 -0.618969 -21.242483 -3.134871 -0.000001 -0.000002 -0.000000 4.897093 7.011222 -4.113474 7.504709 65.018271 -8.526533 0.000016 0.000002 -17.586325 -12.418254 11.186385 7.572455 18.402311 -10.915724 -0.469942 -0.388432 2.597311 32.795553 1.845232 1.102682 8.432044 0.000000 0.000003 0.000000 -0.303279 7.818047 4.715277 -0.671836 20.540132 3.015439 -0.246434 13.843845 0.222828 -0.000000 0.000002 -0.000000 -1.562858 15.641895 9.109327 -1.708656 33.308848 4.777341 -0.264466 15.890970 1.755948 -0.000000 0.000000 -0.000000 -3.307126 26.309351 13.044405 -1.569608 40.104125 5.084365 -0.146616 17.815353 -0.037064 0.000000 0.000000 0.000000 -6.153488 35.283432 19.771145 -2.781060 45.497488 5.822494 -0.828388 22.122523 0.267240 0.000001 -0.000001 -0.000001 -18.332518 14.889893 -10.795723 25.827162 2.561547 -9.870857 -3.332438 -8.829611 -3.506059 -0.460949 0.000003 0.000006 0.000000 0.000000 0.000003 -2.347447 9.763494 4.876872 10.784565 3.260130 4.965232 -8.459136 -7.867943 -0.815680 -0.592861 -0.000000 0.000000 0.000000 0.000001 -0.000001 
1.260061 -0.437927 -93.580322 -1.625061 -4.551422 -1.421187 1.641958 2.341303 1.400533 0.926302 5.918804 -0.231431 0.960638 5.826714 -0.749338 0.668555 -2.110155 0.407944 0.491591 -8.257981 -0.133119 -0.000000 -0.000000 0.000000 5.015872 -6.531399 15.672670 23.790360 -77.656512 18.558614 0.000011 -0.000005 20.863448 -25.980378 -11.360477 2.688059 18.402300 10.915713 0.469946 -0.388552 -2.597399 -32.795543 2.059087 -0.353891 -9.311339 0.000002 0.000001 -0.000005 -0.551172 -10.683100 -5.046717 -0.839578 -23.333647 -3.360895 -0.164489 -12.683282 -1.095327 -0.000000 0.000003 0.000000 -1.957626 -18.485680 -9.608922 -2.032110 -36.268783 -5.259200 -0.220338 -14.774541 -1.790739 0.000000 0.000004 -0.000000 -3.828024 -29.155745 -13.425486 -1.909766 -43.139902 -5.613762 -0.180091 -22.137965 -2.250700 -0.000000 0.000000 0.000001 -7.387272 -37.963055 -20.794294 -3.315981 -48.615845 -6.529572 -0.731325 -23.300641 -3.384717 -0.000000 -0.000002 -0.000001 5.016900 8.141905 -5.034856 18.757885 60.498448 -18.870284 0.000000 -0.000032 -18.303047 -14.190960 15.788981 7.709883 18.402300 -10.915713 -0.469955 -0.388449 2.597303 32.795549 1.845240 1.102662 8.432051 -0.000005 -0.000001 -0.000005 -0.303284 7.818068 4.715280 -0.671834 20.540095 3.015434 -0.246437 13.843845 0.222824 -0.000001 -0.000003 -0.000000 -1.562868 15.641915 9.109323 -1.708663 33.308842 4.777341 -0.264457 15.890970 1.755950 0.000000 -0.000002 0.000001 -3.307134 26.309364 13.044406 -1.569605 40.104115 5.084344 -0.146615 17.815345 -0.037065 0.000001 -0.000000 0.000000 -6.153501 35.283429 19.771159 -2.781048 45.497492 5.822490 -0.828385 22.122530 0.267234 0.000000 0.000002 0.000000 -18.043376 14.390411 -10.746136 25.694641 2.764702 -10.067814 -3.243193 -8.676266 -3.598002 -0.448568 0.000003 -0.000008 -0.000000 0.000000 -0.000001 -2.450134 9.389957 4.848865 11.421645 3.263660 4.808529 -8.592700 -7.638594 -0.645624 -0.642031 -0.000002 -0.000000 0.000000 0.000000 -0.000001 
1.660287 -0.704397 -93.616043 -2.011438 -4.457242 -1.505310 2.007678 2.335490 1.343735 1.074585 5.911272 -0.250565 1.108840 5.819511 -0.767053 0.371100 -2.078609 0.502282 -0.233622 -8.221194 0.263935 0.000000 -0.000000 -0.000000 5.121668 -7.115406 17.018849 32.337718 -73.348951 27.586311 -0.000002 0.000006 25.527603 -26.618933 -14.057463 3.641009 18.402294 10.915710 0.469933 -0.388541 -2.597386 -32.795529 2.059089 -0.353908 -9.311338 0.000002 0.000003 -0.000001 -0.849028 -13.856648 -5.433191 -1.052279 -26.433278 -3.764337 -0.238251 -15.492331 -1.398232 -0.000000 -0.000000 0.000000 -2.428927 -21.635087 -10.185643 -2.443034 -39.540600 -5.840661 -0.311082 -17.583311 -2.096883 -0.000000 -0.000000 0.000001 -4.460193 -32.303871 -13.901612 -2.354390 -46.491318 -6.262549 -0.291297 -25.249550 -2.603139 -0.000000 -0.000000 0.000001 -8.885375 -40.911433 -22.064395 -4.020728 -52.049453 -7.420165 -0.923709 -26.409850 -3.778831 0.000001 0.000001 -0.000001 5.145496 9.045008 -6.076804 27.439640 54.228072 -26.480645 0.000012 0.000013 -19.321495 -16.894073 22.616995 10.515808 18.402287 -10.915730 -0.469945 -0.388422 2.597306 32.795553 1.845257 1.102686 8.432061 -0.000005 0.000003 -0.000002 -0.303269 7.818055 4.715278 -0.671848 20.540126 3.015428 -0.246438 13.843845 0.222838 -0.000001 0.000002 -0.000000 -1.562864 15.641893 9.109325 -1.708662 33.308842 4.777342 -0.264457 15.890980 1.755958 0.000001 -0.000000 -0.000001 -3.307127 26.309370 13.044402 -1.569615 40.104115 5.084358 -0.146620 17.815353 -0.037047 0.000001 -0.000002 -0.000002 -6.153500 35.283422 19.771154 -2.781051 45.497464 5.822494 -0.828387 22.122518 0.267222 -0.000001 0.000000 -0.000000 -17.790249 13.832814 -10.675454 25.605483 3.019600 -10.100594 -3.163749 -8.477045 -3.767740 -0.424125 -0.000004 0.000012 0.000000 0.000000 -0.000002 -2.567741 9.005022 4.826248 12.135200 3.255190 4.747942 -8.747462 -7.357934 -0.453125 -0.710161 -0.000001 -0.000001 0.000000 0.000001 -0.000001 
2.148756 -1.051504 -93.653976 -2.437732 -4.379488 -1.674310 2.470940 2.349470 1.194920 1.261238 5.912938 -0.293233 1.295416 5.821452 -0.808218 0.026005 -2.039889 0.625610 -1.070993 -8.049421 0.794167 -0.000000 -0.000000 0.000000 5.268075 -7.785276 18.754130 28.735036 -69.185985 25.745847 -0.000007 -0.000002 29.546394 -28.206014 -16.804859 1.519011 18.402297 10.915720 0.469944 -0.388522 -2.597378 -32.795532 2.059077 -0.353910 -9.311343 -0.000000 -0.000000 -0.000000 -1.260404 -17.827564 -5.950269 -1.363770 -30.318977 -4.306221 -0.355434 -19.038765 -1.792891 0.000001 -0.000001 0.000001 -3.076986 -25.574720 -10.950727 -3.051377 -43.624893 -6.655817 -0.450904 -21.129282 -2.497922 -0.000001 0.000001 0.000001 -5.347957 -36.235260 -14.590445 -3.036570 -50.669205 -7.193040 -0.466172 -29.150599 -3.069089 0.000002 -0.000004 0.000001 -10.993994 -44.564584 -23.894758 -5.119630 -56.316119 -8.745372 -1.208124 -30.307154 -4.306880 0.000002 -0.000002 -0.000000 5.253301 9.830883 -7.248329 32.175570 47.612948 -30.788775 0.000002 0.000016 -19.553875 -19.787929 30.460461 16.885435 18.402287 -10.915715 -0.469961 -0.388419 2.597304 32.795549 1.845236 1.102679 8.432044 -0.000001 0.000003 -0.000002 -0.303278 7.818051 4.715279 -0.671844 20.540122 3.015445 -0.246432 13.843850 0.222834 0.000001 -0.000001 -0.000001 -1.562869 15.641895 9.109335 -1.708651 33.308865 4.777346 -0.264469 15.890961 1.755946 -0.000000 -0.000001 0.000001 -3.307137 26.309353 13.044410 -1.569612 40.104132 5.084367 -0.146616 17.815331 -0.037066 -0.000001 0.000001 0.000001 -6.153498 35.283405 19.771154 -2.781050 45.497488 5.822488 -0.828394 22.122527 0.267246 -0.000001 -0.000001 -0.000004 -17.582172 13.216437 -10.615086 25.529586 3.294159 -10.104765 -3.054729 -8.191143 -3.884401 -0.406065 -0.000003 0.000005 -0.000000 -0.000000 -0.000000 -2.724380 8.592072 4.789032 12.890088 3.229512 4.755891 -8.870006 -7.007130 -0.224598 -0.798156 0.000001 -0.000004 0.000000 0.000000 -0.000000 
